# xmcd CD database file
#
# Track frame offsets:
#	150
#	10665
#	23273
#	34326
#	50137
#	64057
#
# Disc length: 1057 seconds
#
# Revision: 0
# Processed by: cddbd v1.5.2PL0 Copyright (c) Steve Scherf et al.
# Submitted via: CDex 1.70beta3
#
DISCID=42041f06
DTITLE=Louis Armstrong - The Cool Jazz Collection 41
DYEAR=2009
DGENRE=Jazz
TTITLE0=What a Wonderful World
TTITLE1=Cabaret
TTITLE2=Hellow, Dolly!
TTITLE3=Memories of You
TTITLE4=C'est Si Bon
TTITLE5=La Vie en Rose
EXTD=YEAR: 2009
EXTT0=
EXTT1=
EXTT2=
EXTT3=
EXTT4=
EXTT5=
PLAYORDER=
